# xmcd
#
# Track frame offsets:
# 150
# 18170
# 37750
# 47520
# 79677
# 108127
# 140177
#
# Disc length: 2763 seconds
#
#
# Revision: 0
# Processed by: cddbd v1.5.2PL0 Copyright (c) Steve Scherf et al.
# Submitted via: Nero 7, 10, 1, 0 
#
DISCID=490ac907
DTITLE=Bakerloo - Bakerloo
DYEAR=1969
DGENRE=Blues
TTITLE0=Big Bear Ffolly
TTITLE1=Bring It On Home
TTITLE2=Drivin' Bachwards
TTITLE3=Last Blues
TTITLE4=Gang Bang
TTITLE5=This Worried Feeling
TTITLE6=Son Of Moonshine
EXTD=
EXTT0=Big Bear Ffolly
EXTT1=Bring It On Home
EXTT2=Drivin' Bachwards
EXTT3=Last Blues
EXTT4=Gang Bang
EXTT5=This Worried Feeling
EXTT6=Son Of Moonshine
PLAYORDER=
